<?xml version="1.0" encoding="UTF-8"?>
<svg id="Capa_4" data-name="Capa 4" xmlns="http://www.w3.org/2000/svg" viewBox="0 0 85 85">
  <defs>
    <style>
      .cls-1 {
        fill: #fff;
      }
    </style>
  </defs>
  <path class="cls-1" d="m37.8,75.6c-1.5,0-2.71.03-3.92,0-2.71-.08-4.74-2.09-4.78-4.69-.04-2.54,1.98-4.68,4.66-4.83,1.26-.07,2.52-.01,4.02-.01,0-1.8.07-3.49-.06-5.16-.03-.33-.78-.77-1.26-.88-10.92-2.64-18.68-9.06-22.31-19.72-3.92-11.5-1.62-22.06,6.86-30.78C29.54.76,40.13-1.92,51.75,1.84c11.6,3.75,18.6,12.04,20.56,24.13,2.52,15.55-7.58,30.27-22.97,33.79-1.6.37-2.23.93-2.04,2.56.14,1.18.03,2.39.03,3.73,1.35,0,2.5-.02,3.64,0,2.92.07,5.05,2.11,5.05,4.79,0,2.71-2.12,4.71-5.05,4.76-1.14.02-2.29,0-3.65,0,0,1.45.02,2.76,0,4.06-.07,3.1-2.03,5.18-4.81,5.15-2.71-.03-4.63-2.09-4.7-5.09-.03-1.31,0-2.62,0-4.13Zm-15.81-45.22c-.04,11.35,9.1,20.6,20.45,20.69,11.36.09,20.69-9.2,20.69-20.62,0-11.29-9.13-20.51-20.37-20.57-11.49-.06-20.73,9.06-20.77,20.5Z"/>
</svg>