<?xml version="1.0" encoding="UTF-8"?>
<svg id="Capa_4" data-name="Capa 4" xmlns="http://www.w3.org/2000/svg" viewBox="0 0 80 80">
  <defs>
    <style>
      .cls-1 {
        fill: #fff;
      }
    </style>
  </defs>
  <path class="cls-1" d="m61.03,22.61c3.15,1.27,6.22,2.45,9.25,3.75,3.76,1.62,5.64,4.43,5.45,8.66-.17,3.71-.03,7.43-.03,11.26h-6.44v-7.67h-4.2v37.03h-9.85c1.09-3.04.82-5.82-1.08-8.4-.18-.24.04-.92.27-1.27,1.52-2.34,1.89-4.81.95-7.45-1.08-3.03-3.57-4.81-6.79-4.82-5.63-.02-11.25,0-16.88,0-.5,0-.99,0-1.64,0v-15.11h-4.15v7.72h-6.55c0-1.55,0-3.07,0-4.59,0-2.51.03-5.02,0-7.53-.05-3.25,1.35-5.7,4.21-7.15,2.35-1.19,4.84-2.12,7.28-3.14,1.02-.43,2.08-.79,3.2-1.22,2.76,5.61,7.11,9.27,13.45,9.31,6.36.04,10.76-3.53,13.57-9.38Z"/>
  <path class="cls-1" d="m27.97,57.88c6.64,0,13.29-.01,19.93,0,2.75,0,4.57,2.34,3.46,4.61-.43.88-1.49,1.53-2.39,2.06-.5.29-1.27.16-1.91.16-12.73,0-25.46,0-38.18,0-.42,0-.84.02-1.25-.02-1.99-.17-3.35-1.56-3.35-3.41,0-1.89,1.47-3.36,3.5-3.41,2-.05,3.99-.01,5.99-.01,4.74,0,9.48,0,14.21,0Z"/>
  <path class="cls-1" d="m27.98,75.71c-6.69,0-13.38.02-20.07,0-2.65,0-4.31-2.3-3.41-4.6.48-1.22,1.37-1.97,2.68-2.13.5-.06,1.02-.06,1.53-.06,12.82,0,25.64,0,38.46,0,2.9,0,4.48,1.2,4.49,3.38,0,2.18-1.61,3.42-4.46,3.42-6.41,0-12.82,0-19.23,0Z"/>
  <path class="cls-1" d="m38,21.16c2.23-.85,4.24-1.66,6.29-2.38.77-.27,1.09-.66,1.05-1.5-.07-1.57-.02-3.14-.02-4.79,1.56-.39,3.87.53,3.89-2.22,0-1.31-.63-1.61-3.67-1.88v-3.93c3.46-.69,6.39.71,7.58,3.62,1.21,2.94.15,5.77-2.77,7.8-.44.31-.58,1.23-.6,1.87,0,.32.51.81.89.97,2.01.82,4.06,1.56,6.37,2.43-.68,1.06-1.24,2.05-1.93,2.92-.19.24-.85.28-1.21.17-1.73-.54-3.4-1.24-5.14-1.73-.74-.21-1.64-.21-2.37.02-1.68.52-3.32,1.19-4.94,1.89-.73.31-1.22.23-1.64-.44-.56-.9-1.13-1.78-1.79-2.81Z"/>
  <path class="cls-1" d="m16,4.32h2.14c.46,4.12,2.8,6.43,6.92,6.92v2.12c-4.06.48-6.43,2.75-6.92,6.91h-2.1c-.54-4.01-2.74-6.44-6.94-6.88v-2.15c4.06-.49,6.4-2.74,6.89-6.92Z"/>
</svg>