<?xml version="1.0" encoding="UTF-8"?>
<svg id="Capa_4" data-name="Capa 4" xmlns="http://www.w3.org/2000/svg" viewBox="0 0 80 80">
  <defs>
    <style>
      .cls-1 {
        fill: #fff;
      }
    </style>
  </defs>
  <path class="cls-1" d="m11.54,75.86c-1.46,1.48-2.78,1.52-4.26.05-1.12-1.1-2.24-2.21-3.33-3.34-1.29-1.33-1.29-2.72.07-4.01,3.83-3.61,7.69-7.18,11.54-10.77,1.53-1.43,1.69-2.07.87-3.93-2.61-5.95-2.72-12.16-1.59-18.39,1.66-9.11,5.11-17.46,11.52-24.33,7.52-8.08,17.11-10.08,27-5.16,10.52,5.23,18.35,13.2,22.12,24.54,2.51,7.55.91,14.53-4.25,20.59-4.21,4.95-9.58,8.26-15.55,10.73-5.38,2.23-10.92,3.67-16.75,3.9-4.49.17-8.85-.4-13-2.24-1.66-.73-2.31-.55-3.56.72-1.87,1.9-8.98,9.78-10.83,11.65Zm10.8-18.2c2.2,2.25,5,3.14,8.01,3.55.26.03.55-.15.82-.23-.17-.27-.28-.66-.52-.8-4.64-2.58-8.24-6.2-10.83-10.83-.14-.25-.53-.35-.8-.52-.08.27-.26.56-.23.82.4,3.01,1.31,5.81,3.55,8.01Zm15.5-12.8c.71-.68.75-1.94.09-2.67-.71-.77-2.01-.82-2.74-.09-.72.71-.74,1.8-.05,2.52.83.87,1.94.96,2.7.23Zm-10.44-13.19c-.84-.84-2.07-.88-2.81-.11-.69.73-.6,1.92.21,2.73.69.7,1.88.65,2.62-.11.67-.68.66-1.84-.02-2.52Zm21,23.77c.74-.73.76-2.02.03-2.75-.7-.7-1.98-.74-2.66-.1-.66.63-.66,1.96,0,2.67.72.77,1.93.85,2.63.17Zm-15.86-15.89c.78-.81.78-2.01,0-2.74-.77-.73-1.95-.73-2.65,0-.65.68-.61,1.98.1,2.67.72.7,1.91.73,2.55.07Zm7.88,10.35c.75.78,2.02.87,2.77.2.68-.6.67-1.96-.02-2.67-.73-.75-1.99-.74-2.75.03-.66.66-.67,1.75,0,2.44Zm-10.49-21.01c.71.74,1.93.76,2.64.06.69-.69.69-1.97,0-2.66-.68-.68-1.82-.68-2.55,0-.78.72-.82,1.85-.09,2.61Zm18.58,13.35c-.61-.72-1.78-.83-2.53-.22-.83.67-.97,1.78-.31,2.59.67.82,1.79.93,2.6.25.79-.66.9-1.84.25-2.62Zm2.55,5.17c-.72.7-.7,1.91.04,2.64.72.71,1.79.72,2.52.02.76-.72.8-1.9.09-2.63-.69-.71-1.95-.72-2.66-.03Zm2.54-18.42c.73-.71.74-1.94,0-2.64-.7-.68-1.86-.67-2.56,0-.74.72-.74,1.91,0,2.64.71.69,1.84.69,2.55,0Zm-10.5,7.83c-.73-.69-1.95-.64-2.64.11-.7.76-.65,1.92.13,2.61.73.66,1.84.62,2.53-.09.71-.72.7-1.96-.03-2.64Zm-.03-18.39c.7-.71.69-1.94-.03-2.64-.73-.72-1.89-.68-2.61.08-.7.74-.69,1.8.02,2.52.72.73,1.93.75,2.63.04Zm-5.24,15.74c.72-.74.72-1.93-.02-2.62-.74-.7-1.92-.65-2.63.11-.68.72-.66,1.82.04,2.53.74.75,1.87.74,2.61-.01Zm26.32,5.35c.74-.74.74-1.9,0-2.61-.72-.7-1.96-.68-2.64.04-.65.69-.63,1.83.05,2.54.73.77,1.85.77,2.6.02Zm-26.33-15.83c.7-.71.67-1.94-.07-2.65-.73-.7-1.81-.68-2.54.04-.76.75-.73,1.88.05,2.62.73.68,1.88.68,2.56,0Zm10.53,10.55c.7-.7.73-1.83.05-2.55-.72-.77-1.88-.8-2.63-.07-.74.72-.73,1.92.03,2.64.73.69,1.84.68,2.55-.02Zm2.68,5.25c.69.72,1.8.75,2.55.08.78-.71.81-1.88.08-2.62-.71-.72-1.79-.76-2.54-.08-.77.71-.81,1.87-.09,2.63Zm7.85,5.32c.77-.75.79-1.86.04-2.6-.72-.72-1.93-.74-2.63-.03-.67.68-.68,1.82-.01,2.54.72.78,1.85.81,2.6.08Zm5.23-15.77c.73-.69.77-1.79.1-2.54-.71-.79-1.85-.85-2.61-.12-.76.72-.77,1.88-.03,2.62.71.7,1.82.72,2.54.04Zm-15.76-7.94c-.68-.69-1.84-.71-2.56-.04-.76.71-.78,1.89-.05,2.63.71.71,1.8.73,2.54.05.76-.71.79-1.91.07-2.63Zm10.59,10.59c-.67-.71-1.82-.75-2.55-.1-.78.7-.83,1.87-.11,2.63.69.73,1.79.77,2.54.1.78-.7.83-1.87.12-2.63Zm-15.86-2.75c.75-.76.73-1.89-.04-2.62-.72-.69-1.83-.68-2.54.03-.74.74-.72,1.9.04,2.63.74.7,1.83.68,2.53-.03Zm10.49-10.5c.76-.74.74-1.86-.03-2.61-.72-.69-1.84-.69-2.54,0-.71.7-.73,1.81-.05,2.54.72.78,1.86.8,2.61.06Zm5.32,2.73c-.73-.76-1.9-.77-2.63-.03-.69.7-.69,1.82,0,2.55.72.75,1.91.77,2.63.03.69-.71.69-1.82,0-2.54Z"/>
</svg>