<?xml version="1.0" encoding="UTF-8"?>
<svg id="Capa_4" data-name="Capa 4" xmlns="http://www.w3.org/2000/svg" viewBox="0 0 80 80">
  <defs>
    <style>
      .cls-1 {
        fill: #fff;
      }
    </style>
  </defs>
  <path class="cls-1" d="m30.95,62.38c-2.53.4-4.9.85-7.29,1.14-2.8.34-4.66-1.36-4.71-4.16-.01-.62,0-1.25,0-1.87,0-2.37-.01-4.75-.02-7.12,0-.07-.05-.15-.13-.36-1.1,0-2.25.01-3.41,0-2.08-.03-2.96-1.39-2.05-3.24,1.48-3.03,2.96-6.06,4.54-9.03.79-1.48,1.16-2.96,1.09-4.64-.18-4.24.65-8.3,2.67-12.05,4.29-7.95,11.01-12.47,20-12.96,9.2-.5,16.57,3.34,21.55,11.12,5.61,8.78,5.01,19.25-1.35,27.55-1.99,2.6-3.04,5.35-2.9,8.65.14,3.37.04,6.75.03,10.12,0,1.6-.55,2.25-2.15,2.51-7.71,1.3-15.43,2.6-23.14,3.89-1.73.29-2.7-.54-2.71-2.34-.02-2.36,0-4.73,0-7.2Z"/>
</svg>