<?xml version="1.0" encoding="UTF-8"?>
<svg id="Capa_6" data-name="Capa 6" xmlns="http://www.w3.org/2000/svg" viewBox="0 0 128 128">
  <defs>
    <style>
      .cls-1 {
        fill: #fefefe;
      }
    </style>
  </defs>
  <path class="cls-1" d="m117.33,128c-2.73,0-5.46-1.04-7.54-3.12L3.12,18.21C-1.04,14.04-1.04,7.29,3.12,3.12,7.29-1.04,14.04-1.04,18.21,3.12l106.67,106.67c4.17,4.17,4.17,10.92,0,15.09-2.08,2.08-4.81,3.12-7.54,3.12Z"/>
  <path class="cls-1" d="m10.67,128c-2.73,0-5.46-1.04-7.54-3.12-4.17-4.17-4.17-10.92,0-15.09L109.79,3.12c4.17-4.17,10.92-4.17,15.08,0s4.17,10.92,0,15.09L18.21,124.88c-2.08,2.08-4.81,3.12-7.54,3.12Z"/>
</svg>