<?xml version="1.0" encoding="UTF-8"?>
<svg id="Capa_6" data-name="Capa 6" xmlns="http://www.w3.org/2000/svg" viewBox="0 0 128 128">
  <defs>
    <style>
      .cls-1 {
        fill: #fff;
      }
    </style>
  </defs>
  <path class="cls-1" d="m76.17,12.1c-2.51,2.91-4.92,5.54-7.16,8.32-3.87,4.81-6.17,10.4-7.88,16.29-.25.87-1.05,1.88-1.86,2.24-6.52,2.94-9.95,9.2-8.62,16.01,1.2,6.18,6.95,10.9,13.4,11.02,6.61.12,12.5-4.4,13.92-10.69,1.52-6.71-1.79-13.22-8.24-16.19-.36-.17-.72-.35-1.23-.59,2.18-8.31,6.17-15.27,13.7-20.04-1.87-1.68-3.64-3.27-5.74-5.16,4.89-3.24,9.53-4.57,14.65-4.03,6.57.7,11.84,3.9,15.84,9.01,7.49,9.57,9.4,20.72,8.6,32.52-.04.64-.56,1.37-1.05,1.86-16.59,16.62-33.2,33.22-49.8,49.83-.17.17-.39.3-.77.58-.63-.58-1.3-1.15-1.92-1.78-15.26-15.25-30.51-30.5-45.76-45.75-5.32-5.32-5.3-10.17.08-15.55C28.4,27.93,40.47,15.85,52.54,3.79c5.06-5.06,10.1-5.04,15.18,0,3,2.98,6.03,5.94,8.45,8.32Zm32.34,31.81c-.58-3.29-.84-6.11-1.59-8.8-1.71-6.19-4.41-11.87-9.77-15.81-4.54-3.34-10.34-3.56-14.12-.85,8.29,8.29,16.62,16.6,25.48,25.46Z"/>
  <path class="cls-1" d="m96.29,81.64c0,1.43,0,2.18,0,2.92,0,10.99.04,21.98-.02,32.98-.03,6.76-3.83,10.45-10.6,10.46-12.07.01-24.15.02-36.22-.01-3.68-.01-6.6-2.1-7.68-5.3-1.06-3.16-.11-6.88,2.7-8.67,1.52-.97,3.52-1.52,5.34-1.62,4.4-.23,8.82-.15,13.24-.04,1.72.04,2.94-.49,4.15-1.71,8.84-8.94,17.76-17.81,26.65-26.7.63-.63,1.29-1.22,2.45-2.31Z"/>
  <path class="cls-1" d="m64.31,58.53c-3.49-.02-6.49-3.06-6.46-6.55.03-3.54,3-6.46,6.54-6.44,3.57.02,6.46,2.96,6.43,6.53-.02,3.55-2.98,6.48-6.52,6.46Z"/>
</svg>