<?xml version="1.0" encoding="UTF-8"?>
<svg id="Capa_4" data-name="Capa 4" xmlns="http://www.w3.org/2000/svg" viewBox="0 0 85 85">
  <defs>
    <style>
      .cls-1 {
        fill: #fff;
      }
    </style>
  </defs>
  <path class="cls-1" d="m52.3,25.7c5.52-5.52,10.93-10.93,16.39-16.38-2.53,0-5.15,0-7.78,0-1.89,0-3.78.04-5.67-.02-2.61-.08-4.48-2.02-4.46-4.52.02-2.5,1.89-4.44,4.52-4.46,8.38-.04,16.77-.04,25.15,0,2.54.02,4.25,1.72,4.27,4.24.05,8.38.05,16.77,0,25.15-.02,2.76-1.98,4.66-4.54,4.67-2.63,0-4.53-1.95-4.56-4.83-.04-4.42-.01-8.85-.01-12.92-5.28,5.28-10.7,10.71-16.18,16.19,11.26,15.47,6.23,35.43-6.53,45.14-13.1,9.97-31.62,8.78-43.18-2.85C-1.84,63.49-2.94,44.95,7.12,31.93c9.99-12.93,29.59-17.22,45.17-6.24Zm-19.09,2.67c-13.15-.04-23.82,10.52-23.86,23.62-.04,13.09,10.61,23.79,23.7,23.81,13.04.02,23.69-10.56,23.74-23.57.05-13.19-10.46-23.83-23.58-23.87Z"/>
</svg>