<?xml version="1.0" encoding="UTF-8"?>
<svg id="Capa_18" data-name="Capa 18" xmlns="http://www.w3.org/2000/svg" viewBox="0 0 250 250">
  <defs>
    <style>
      .cls-1 {
        fill: #fff;
      }
    </style>
  </defs>
  <path class="cls-1" d="m109.03,53.52c-30.93,5.98-49.42,24.39-55.41,55.51H.26v-59.99C27.26,43.53,43.62,27.21,49.14,0h59.88v53.52Z"/>
  <path class="cls-1" d="m233.21,109.14h-53.4c-5.91-31.01-24.34-49.69-55.56-55.62V.12h60.01c5.53,27.04,21.74,43.27,48.95,48.9v60.13Z"/>
  <path class="cls-1" d="m109.17,179.65v53.42h-60.04c-5.52-26.99-21.67-43.29-48.92-48.94v-59.91h53.4c5.87,30.87,24.38,49.48,55.56,55.43Z"/>
  <path class="cls-1" d="m249.8,200.77c-27.03,5.53-43.29,21.72-48.94,48.95h-59.93v-53.63c14.12-2.15,26.76-7.94,37.07-18.29,10.21-10.25,16.02-22.73,18.18-37.05h53.62v60.01Z"/>
  <path class="cls-1" d="m69.12,108.93c1.82-19.68,21.57-39.2,40.08-39.76v39.76h-40.08Z"/>
  <path class="cls-1" d="m124.22,109.28v-40.03c18.18.13,39.99,21.97,39.75,39.83-1.27.07-2.55.19-3.83.19-11.83.01-23.65,0-35.92,0Z"/>
  <path class="cls-1" d="m140.77,180.65v-39.7h39.7c.8,13.68-16.32,37.91-39.7,39.7Z"/>
  <path class="cls-1" d="m109,164.05c-18.97-1.16-39-21.32-39.75-39.92h39.75v39.92Z"/>
  <path class="cls-1" d="m33.74,233.14H.21v-33.54c16.59,2.33,30.58,16.22,33.53,33.54Z"/>
  <path class="cls-1" d="m250.07,216.15c0,10.79,0,21.18-.01,31.58,0,.61-.16,1.22-.27,2.08-.95.07-1.72.18-2.49.18-10.23.01-20.47,0-30.71,0,.62-15.41,16.1-31.15,33.49-33.85Z"/>
  <path class="cls-1" d="m199.56,0h33.6v33.54C216.85,31.43,202.9,17.67,199.56,0Z"/>
  <path class="cls-1" d="m-.07,0h33.64C31.94,16.17,16.66,31.5.17,33.52c-.08-.96-.23-1.91-.23-2.87C-.08,20.61-.07,10.56-.07,0Z"/>
</svg>