<?xml version="1.0" encoding="UTF-8"?>
<svg id="Capa_18" data-name="Capa 18" xmlns="http://www.w3.org/2000/svg" viewBox="0 0 250 250">
  <defs>
    <style>
      .cls-1 {
        fill: #fff;
      }
    </style>
  </defs>
  <polygon class="cls-1" points="50.36 99.66 76.12 99.66 43.65 183.14 0 183.14 50.36 99.66"/>
  <polygon class="cls-1" points="81.81 85 78.1 94.56 76.61 98.39 51.13 98.39 53.53 94.41 59.2 85 81.81 85"/>
  <polygon class="cls-1" points="89.12 66.86 83.3 81.18 61.51 81.18 70.74 66.86 89.12 66.86"/>
  <polygon class="cls-1" points="117.89 75.44 117.89 81.18 87.64 81.18 89.45 75.44 117.89 75.44"/>
  <polygon class="cls-1" points="117.89 85 117.89 98.39 82.19 98.39 83.4 94.56 86.43 85 117.89 85"/>
  <polygon class="cls-1" points="81.79 99.66 117.89 99.66 117.89 139.17 69.26 139.17 81.79 99.66"/>
  <polygon class="cls-1" points="154.93 72.26 90.46 72.26 92.35 66.86 153.41 66.86 154.93 72.26"/>
  <polygon class="cls-1" points="157.76 81.18 125.61 81.18 125.34 75.44 155.95 75.44 157.76 81.18"/>
  <polygon class="cls-1" points="163.21 98.39 126.42 98.39 126.24 94.56 125.8 85 158.97 85 162 94.56 163.21 98.39"/>
  <polygon class="cls-1" points="176.13 139.17 128.34 139.17 126.48 99.66 163.61 99.66 176.13 139.17"/>
  <polygon class="cls-1" points="190.07 183.14 55.33 183.14 66.44 148.09 178.96 148.09 190.07 183.14"/>
  <polygon class="cls-1" points="181.11 81.18 162 81.18 156.69 66.86 172.06 66.86 181.11 81.18"/>
  <polygon class="cls-1" points="192.73 98.39 168.69 98.39 167.21 94.56 163.49 85 183.69 85 189.91 94.2 192.73 98.39"/>
  <polygon class="cls-1" points="250 183.14 201.65 183.14 169.19 99.66 193.59 99.66 250 183.14"/>
  <path class="cls-1" d="m181.11,81.18l2.58,3.82h6.22v9.56H53.53v-9.56h5.67l2.31-3.82h-11.8v17.21h144.02v-17.21h-12.62Z"/>
  <polygon class="cls-1" points="193.73 98.39 193.73 99.66 193.59 99.66 192.73 98.39 193.73 98.39"/>
</svg>