<?xml version="1.0" encoding="UTF-8"?>
<svg id="Capa_18" data-name="Capa 18" xmlns="http://www.w3.org/2000/svg" viewBox="0 0 250 250">
  <defs>
    <style>
      .cls-1 {
        fill: #fff;
      }
    </style>
  </defs>
  <path class="cls-1" d="m32.42,50h185.06v149.95H32.42V50Zm92.55,21.9c-21.09,0-42.19,0-63.28,0-6.31,0-7.34,1.02-7.34,7.23-.01,30.61-.01,61.21,0,91.82,0,6.17,1.04,7.18,7.39,7.18,42.19.01,84.38.01,126.57,0,6.3,0,7.34-1.03,7.35-7.23.01-30.61.01-61.21,0-91.82,0-6.17-1.04-7.17-7.4-7.18-21.09-.01-42.19,0-63.28,0Z"/>
  <path class="cls-1" d="m7.35,19.02h235.02c-5.67,5.68-10.92,10.34-15.43,15.63-4.23,4.96-8.97,6.48-15.46,6.45-59.11-.26-118.21-.18-177.32-.08-3.34,0-5.69-.95-7.99-3.34-5.79-6.01-11.84-11.78-18.82-18.66Z"/>
  <path class="cls-1" d="m242.28,230.98H8.17c7.3-7.43,14.06-14.42,20.99-21.24.73-.72,2.41-.62,3.66-.62,61.52-.03,123.05-.03,184.57.02,1.35,0,3.13.19,3.99,1.02,6.81,6.58,13.44,13.34,20.91,20.83Z"/>
  <path class="cls-1" d="m1.35,225.08V25.61c1.58,1.42,2.73,2.36,3.78,3.41,6.02,6.05,14.32,11.16,17.36,18.46,3.04,7.3.89,16.79.89,25.32.03,41.56-.04,83.12.1,124.69.01,3.89-1.12,6.58-3.91,9.22-5.94,5.62-11.54,11.59-18.23,18.38Z"/>
  <path class="cls-1" d="m248.65,25.03v199.39c-1.58-1.42-2.74-2.37-3.78-3.42-6.02-6.05-14.31-11.16-17.36-18.46-3.04-7.29-.89-16.79-.9-25.31-.03-41.4.05-82.79-.11-124.19-.02-4.24,1.23-7.19,4.26-10.04,5.83-5.49,11.33-11.34,17.88-17.97Z"/>
  <path class="cls-1" d="m63.34,141.51v-60.51h123.16v60.78c-5.82-4.85-11.2-9.34-16.59-13.82-4.94-4.1-5.8-4.09-10.43.58-5.55,5.6-11.02,11.27-16.86,17.25-5.1-4.06-9.85-7.82-14.59-11.61-8.3-6.63-16.71-13.15-24.85-19.98-3.58-3-6.26-2.76-9.61.31-9.73,8.91-19.66,17.58-30.24,26.99Zm92.58-34.1c.04-9.61-7.69-17.53-17.34-17.74-9.78-.21-17.93,7.76-17.98,17.59-.05,9.57,7.79,17.58,17.36,17.73,9.83.15,17.92-7.77,17.96-17.58Z"/>
  <path class="cls-1" d="m164.88,135.29c7.03,5.84,13.64,11.25,20.11,16.8.95.82,1.76,2.34,1.82,3.57.22,4.32.09,8.65.09,13.32H63.12c0-4.78-.12-9.41.09-14.02.05-1.07.98-2.32,1.85-3.1,11.03-9.89,22.12-19.71,33.52-29.85,3.55,2.8,7.06,5.54,10.55,8.32,9.06,7.24,18.11,14.49,27.15,21.75,6.62,5.31,6.83,5.33,12.66-.54,5.22-5.26,10.37-10.57,15.94-16.26Z"/>
  <path class="cls-1" d="m138.12,116.21c-4.83-.08-8.73-4.22-8.6-9.14.13-5.01,4.08-8.68,9.14-8.47,4.71.19,8.5,4.12,8.47,8.77-.03,4.77-4.25,8.92-9.01,8.84Z"/>
</svg>