<?xml version="1.0" standalone="no"?>
<!DOCTYPE svg PUBLIC "-//W3C//DTD SVG 20010904//EN"
 "http://www.w3.org/TR/2001/REC-SVG-20010904/DTD/svg10.dtd">
<svg version="1.0" xmlns="http://www.w3.org/2000/svg"
 width="226.000000pt" height="272.000000pt" viewBox="0 0 226.000000 272.000000"
 preserveAspectRatio="xMidYMid meet">

<g transform="translate(0.000000,272.000000) scale(0.100000,-0.100000)"
fill="#000000" stroke="none">
<path d="M1860 1968 c0 -28 -41 -97 -76 -128 -113 -100 -244 -158 -655 -289
-320 -101 -524 -277 -568 -489 -7 -35 -11 -228 -11 -559 l0 -505 73 4 c124 7
299 94 413 206 75 74 133 168 166 267 21 62 23 88 23 242 l-1 171 246 97 c135
54 267 109 293 123 85 46 162 142 208 262 20 51 18 356 -3 430 -21 72 -43 124
-68 161 -25 34 -40 37 -40 7z"/>
</g>
</svg>
