<?xml version="1.0" encoding="UTF-8"?>
<svg id="BUTTON_BAR" data-name="BUTTON BAR" xmlns="http://www.w3.org/2000/svg" viewBox="0 0 85 85">
  <defs>
    <style>
      .cls-1 {
        fill: #fff;
      }
    </style>
  </defs>
  <path class="cls-1" d="m32.05,6.76c10.35-.03,18.81,8.39,18.84,18.73.03,10.32-8.44,18.81-18.76,18.83-10.33.02-18.8-8.41-18.84-18.74-.04-10.32,8.4-18.78,18.75-18.81Z"/>
  <path class="cls-1" d="m32.03,46.64c-16.66.04-30.24,11.46-30.18,25.39,0,.8.05,1.6.14,2.38h29.31l2.72-13.98c.16-.59.47-1.14.91-1.57l9.84-9.84c-3.91-1.53-8.25-2.39-12.75-2.38Z"/>
  <path class="cls-1" d="m68.34,30.32h13.34c1.48,0,2.68,1.2,2.68,2.68v9.66h-18.7v-9.66c0-1.48,1.2-2.68,2.68-2.68Z" transform="translate(47.77 -42.36) rotate(45)"/>
  <polygon class="cls-1" points="50.74 75.56 33.84 78.24 36.8 61.62 61.6 36.55 75.54 50.49 50.74 75.56"/>
</svg>