<svg xmlns="http://www.w3.org/2000/svg" viewBox="0 0 34.74 31.87"><defs><style>.cls-1{fill:#fff;}</style></defs><g id="Capa_2" data-name="Capa 2"><g id="Capa_3" data-name="Capa 3"><path class="cls-1" d="M27,13.56A13.53,13.53,0,0,1,13.28,27a2,2,0,0,0-1.1.35A17.78,17.78,0,0,1,6,30a1.09,1.09,0,0,1-.93-.23,1.32,1.32,0,0,1-.11-1c.28-.92.66-1.8,1-2.7a1.52,1.52,0,0,0-.66-1.88A13,13,0,0,1,.07,14.85,13.07,13.07,0,0,1,3.82,4.12,13.49,13.49,0,0,1,27,13.56ZM15.24,13.5a1.71,1.71,0,0,0-1.72-1.72,1.76,1.76,0,0,0-1.77,1.76,2,2,0,0,0,1.61,1.72A1.85,1.85,0,0,0,15.24,13.5Zm-5.11,0a1.7,1.7,0,0,0-1.69-1.76,1.74,1.74,0,0,0-1.78,1.68,1.64,1.64,0,0,0,1.69,1.73A1.68,1.68,0,0,0,10.13,13.54Zm8.35,1.65a1.71,1.71,0,1,0,.18-3.41,1.72,1.72,0,0,0-1.78,1.67A1.63,1.63,0,0,0,18.48,15.19Z"/><path class="cls-1" d="M29.09,11.45a9.93,9.93,0,0,1,4.16,4.06,10.89,10.89,0,0,1-.54,11.81,1.25,1.25,0,0,0,0,1.1c.41.69,1,1.28,1.42,1.94a1.33,1.33,0,0,1,.29.92c-.06.2-.49.4-.78.42a14.12,14.12,0,0,1-5.17-.44,2.14,2.14,0,0,0-1.15,0A10.77,10.77,0,0,1,17,29.48a4.47,4.47,0,0,1-.4-.34.88.88,0,0,1-.12-.19C25.22,26.4,29.39,20.6,29.09,11.45Z"/></g></g></svg>