<?xml version="1.0" encoding="UTF-8"?>
<svg id="Capa_6" data-name="Capa 6" xmlns="http://www.w3.org/2000/svg" viewBox="0 0 128 128">
  <defs>
    <style>
      .cls-1 {
        fill: #fff;
      }
    </style>
  </defs>
  <path class="cls-1" d="m80.12,114.5c-3.25,2.22-6.26,4.4-9.4,6.39-5.58,3.54-11.27,3.55-16.86.03-3.15-1.98-6.16-4.18-9.77-6.64,0,3.45.04,6.46-.02,9.46-.03,1.75.52,4.18-2.17,4.19-2.8.02-2.35-2.45-2.36-4.31-.03-3.65.07-7.3-.06-10.95-.03-.84-.7-1.69-1.16-2.48-.32-.55-.86-.72-.96-.77-1-.61-7.73-6.17-16.74-22.3-1.82-3.26-3.96-7.12-6.3-12.6-3.12-7.31-4.94-13.64-5.42-15.68C4.8,41.18,23.51,9.86,50.1,2.23c4.85-1.39,14.12-4.05,23.68.44,8.05,3.78,12.08,10.64,13.63,13.68,3.99-.52,10.35-.67,16.54,2.57,13.19,6.9,16.65,24.51,15.48,36.1-1.36,13.45-9.49,24.09-14.81,31.04-5.2,6.79-9.65,14.13-14.78,20.98-2.26,3.01-5.17,6.8-4.78,10.88.2,2.06.06,4.15.04,6.22-.02,1.76.12,3.88-2.37,3.83-.65-.01-1.11-.18-1.44-.47-.98-.83-.85-2.59-.8-3.27.15-2.06.1-5.05-.37-9.71h0Zm18.04-57.15c-3.49-2-9.28-5.99-13.76-13.07-2.1-3.31-3.39-6.49-4.21-9.1-15.91,9.05-28.27,15.73-37.84,20.01,0,0-12.92,5.78-15.68,13.7-.5,1.43-.77,2.97-.77,2.97.29,3.8.53,7.63,1.22,11.36,1.7,9.16,5.53,17.19,13.32,22.82,4.91,3.55,9.88,6.99,14.85,10.46,4.61,3.22,9.25,3.26,13.87.03,4.96-3.46,9.97-6.87,14.86-10.44,2.46-1.79,4.58-3.83,6.35-6.1.8-1.03,3.76-4.92,5.88-12.12,3.6-12.24,2.39-25.98,1.89-30.53h0Z"/>
</svg>