<svg xmlns="http://www.w3.org/2000/svg" viewBox="0 0 36.63 23.08"><defs><style>.cls-1{fill:#fff;}</style></defs><g id="Capa_2" data-name="Capa 2"><g id="Capa_3" data-name="Capa 3"><path class="cls-1" d="M0,20.69V18.76H15.27a2.47,2.47,0,0,1,2.52,2.44.53.53,0,1,0,1.05,0,2.47,2.47,0,0,1,2.54-2.45H36.63v1.94H21.4c-.45,0-.6.12-.69.56a2.2,2.2,0,0,1-2.31,1.83,3.32,3.32,0,0,1-.94-.12,2.07,2.07,0,0,1-1.54-1.7c-.09-.45-.23-.57-.68-.57H0Z"/><path class="cls-1" d="M17.79,2.8a3,3,0,0,0,0-.42A2.85,2.85,0,0,0,15,0H.11V17.71H15a4,4,0,0,1,2.58.75l.19.13V2.8ZM8.42,15.25a.51.51,0,0,1-.51.51H2.57a.51.51,0,0,1-.51-.51V9.91a.51.51,0,0,1,.51-.51H7.91a.51.51,0,0,1,.51.51Zm0-7.42a.51.51,0,0,1-.51.51H2.57a.51.51,0,0,1-.51-.51V2.49A.51.51,0,0,1,2.57,2H7.91a.51.51,0,0,1,.51.51Zm7.42,7.42a.51.51,0,0,1-.51.51H10a.51.51,0,0,1-.51-.51V9.91A.51.51,0,0,1,10,9.4h5.45a.5.5,0,0,1,.4.19Zm0-7.1a.5.5,0,0,1-.4.19H10a.51.51,0,0,1-.51-.51V2.49A.51.51,0,0,1,10,2h5.34a.51.51,0,0,1,.51.51Z"/><path class="cls-1" d="M36.29,0H21.64a2.84,2.84,0,0,0-2.76,2.35,2,2,0,0,0,0,.42V18.55l.18-.12a4,4,0,0,1,2.58-.75H36.52V0ZM27.15,15.22a.51.51,0,0,1-.51.51H21.3a.51.51,0,0,1-.51-.51V9.55a.52.52,0,0,1,.4-.18h5.45a.51.51,0,0,1,.51.51Zm0-7.42a.51.51,0,0,1-.51.51H21.19a.5.5,0,0,1-.4-.19V2.46A.51.51,0,0,1,21.3,2h5.34a.51.51,0,0,1,.51.51ZM34,13.07h-2.1v2.1a.52.52,0,0,1-.52.53.53.53,0,0,1-.53-.53v-2.1h-2.1a.52.52,0,0,1-.52-.52.52.52,0,0,1,.52-.53h2.1V9.92a.52.52,0,0,1,.53-.52.52.52,0,0,1,.52.52V12H34a.53.53,0,0,1,.53.53A.52.52,0,0,1,34,13.07Zm.56-5.27a.51.51,0,0,1-.51.51H28.72a.51.51,0,0,1-.51-.51V2.46A.51.51,0,0,1,28.72,2h5.34a.51.51,0,0,1,.51.51Z"/></g></g></svg>