<?xml version="1.0" encoding="UTF-8"?>
<svg id="Capa_2" data-name="Capa 2" xmlns="http://www.w3.org/2000/svg" xmlns:xlink="http://www.w3.org/1999/xlink" viewBox="0 0 250 250">
  <defs>
    <style>
      .cls-1 {
        fill: #20313e;
        fill-rule: evenodd;
      }

      .cls-2 {
        fill: url(#Degradado_sin_nombre);
      }
    </style>
    <linearGradient id="Degradado_sin_nombre" data-name="Degradado sin nombre" x1="125" y1="1.38" x2="125" y2="251.21" gradientTransform="translate(0 251.29) scale(1 -1)" gradientUnits="userSpaceOnUse">
      <stop offset="0" stop-color="#000"/>
      <stop offset=".5" stop-color="#081420"/>
      <stop offset="1" stop-color="#434e59"/>
    </linearGradient>
  </defs>
  <path class="cls-1" d="m0,121.19C0,56.01,55.96.08,125,.08s125,55.93,125,121.11c0,72.79-55.96,128.72-125,128.72S0,193.98,0,121.19Z"/>
  <path class="cls-2" d="m125,15.38c29.17,0,56.76,11.27,77.7,31.76,20.64,20.19,32,46.5,32,74.07,0,63.61-48.19,113.43-109.7,113.43S15.3,184.82,15.3,121.21c0-27.56,11.37-53.87,32-74.07,20.93-20.47,48.53-31.76,77.7-31.76m0-15.3C55.96.08,0,56.01,0,121.19c0,72.79,55.96,128.72,125,128.72s125-55.93,125-128.72C250,56.01,194.04.08,125,.08h0Z"/>
</svg>