<?xml version="1.0" encoding="UTF-8"?>
<svg id="Capa_2" data-name="Capa 2" xmlns="http://www.w3.org/2000/svg" xmlns:xlink="http://www.w3.org/1999/xlink" viewBox="0 0 250 250">
  <defs>
    <style>
      .cls-1 {
        fill: url(#Degradado_sin_nombre_46);
        fill-rule: evenodd;
      }

      .cls-2 {
        fill: #262b35;
      }
    </style>
    <radialGradient id="Degradado_sin_nombre_46" data-name="Degradado sin nombre 46" cx="125" cy="125" fx="125" fy="125" r="124.96" gradientUnits="userSpaceOnUse">
      <stop offset="0" stop-color="#bfcada" stop-opacity="0"/>
      <stop offset=".25" stop-color="#b4bfcf" stop-opacity=".07"/>
      <stop offset=".51" stop-color="#94a1b0" stop-opacity=".27"/>
      <stop offset=".77" stop-color="#5f6e7c" stop-opacity=".6"/>
      <stop offset="1" stop-color="#20313e"/>
    </radialGradient>
  </defs>
  <path class="cls-1" d="m128.8,0c65.19,0,121.12,55.96,121.12,125s-55.93,125-121.12,125C56.01,250,.08,194.04.08,125S56.01,0,128.8,0Z"/>
  <path class="cls-2" d="m128.8,5.56c30.21,0,58.99,12.41,81.03,34.94,22.27,22.76,34.53,52.77,34.53,84.51s-12.26,61.74-34.53,84.5c-22.04,22.53-50.82,34.94-81.03,34.94-33.55,0-64.72-12.44-87.77-35.02C18.21,187.05,5.64,157.07,5.64,125s12.57-62.05,35.4-84.42C64.08,17.99,95.25,5.56,128.8,5.56M128.8,0C56.01,0,.08,55.96.08,125s55.93,125,128.72,125c65.19,0,121.12-55.96,121.12-125S193.99,0,128.8,0h0Z"/>
</svg>