<svg xmlns="http://www.w3.org/2000/svg" viewBox="0 0 33.23 33.23"><defs><style>.cls-1{fill:#fff;}</style></defs><g id="Capa_2" data-name="Capa 2"><g id="Capa_3" data-name="Capa 3"><path class="cls-1" d="M10.34,29.8c1.52-1.53,2.94-3,4.4-4.39a1,1,0,0,1,.64-.12,8.77,8.77,0,0,0,8-14.24,8.66,8.66,0,0,0-9.24-2.81A8.46,8.46,0,0,0,8,15.5a17.34,17.34,0,0,0,0,2.39,1,1,0,0,1-.17.64C6.42,19.94,5,21.32,3.64,22.72a1.26,1.26,0,0,1-.25.13c-.3-.83-.61-1.62-.85-2.44-.11-.35-.23-.55-.61-.63C-.2,19.36,0,19.21,0,17.29c0-.8,0-1.6,0-2.4s.29-1.14.93-1.2A1.93,1.93,0,0,0,2.84,12,18.11,18.11,0,0,1,4,9.29a1,1,0,0,0,0-.8c-1-1.65-1-1.62.41-3,.57-.56,1.13-1.14,1.7-1.7s1-.69,1.6-.2a1.82,1.82,0,0,0,2.36.08,13.76,13.76,0,0,1,2.76-1.08.78.78,0,0,0,.65-.67C13.87-.21,14.09,0,15.86,0h2.47c.75,0,1.13.23,1.22,1A1.84,1.84,0,0,0,21.21,2.8,12.71,12.71,0,0,1,23.86,4a.85.85,0,0,0,.94,0c1.62-1,1.62-1,3,.4.58.58,1.16,1.17,1.75,1.74a1,1,0,0,1,.18,1.55,1.83,1.83,0,0,0-.08,2.42,19.12,19.12,0,0,1,1.1,2.76,1,1,0,0,0,.56.56c2.17.5,1.94.57,1.95,2.63,0,.78,0,1.55,0,2.33s-.28,1.11-.9,1.16c-1.2.08-1.69.73-2,1.84a12.44,12.44,0,0,1-1.14,2.53.8.8,0,0,0,0,.89c1,1.58,1.06,1.58-.37,3-.59.58-1.17,1.16-1.74,1.75a1.07,1.07,0,0,1-1.56.2,1.84,1.84,0,0,0-2.41-.1,13.06,13.06,0,0,1-2.77,1.08.75.75,0,0,0-.61.63c-.43,2.12-.58,1.91-2.5,1.91h-2.4c-.67,0-1.14-.3-1.19-.94a1.84,1.84,0,0,0-1.76-1.88A8.67,8.67,0,0,1,10.34,29.8Z"/><path class="cls-1" d="M23.45,16.61a6.77,6.77,0,0,1-8.59,6.58.86.86,0,0,0-1,.27q-4.35,4.37-8.71,8.72a2.92,2.92,0,0,1-4.5,0,2.87,2.87,0,0,1,0-3.65,7.57,7.57,0,0,1,.61-.66C4.08,25,6.9,22.18,9.74,19.37A1,1,0,0,0,10,18.29,6.81,6.81,0,0,1,18.27,10a1,1,0,0,1,.51,1.69c-.65.69-1.35,1.34-2,2a2,2,0,1,0,2.74,2.76l1.88-1.88a1.09,1.09,0,0,1,1.14-.43,1,1,0,0,1,.73,1C23.32,15.63,23.39,16.12,23.45,16.61Z"/></g></g></svg>