<?xml version="1.0" encoding="UTF-8"?>
<svg id="Capa_2" data-name="Capa 2" xmlns="http://www.w3.org/2000/svg" xmlns:xlink="http://www.w3.org/1999/xlink" viewBox="0 0 250 250">
  <defs>
    <style>
      .cls-1 {
        fill: #fff;
      }

      .cls-2 {
        fill: url(#Degradado_sin_nombre_131);
      }

      .cls-3 {
        fill: url(#Degradado_sin_nombre_138);
      }
    </style>
    <linearGradient id="Degradado_sin_nombre_138" data-name="Degradado sin nombre 138" x1="0" y1="125" x2="250" y2="125" gradientUnits="userSpaceOnUse">
      <stop offset="0" stop-color="#2fab96"/>
      <stop offset=".5" stop-color="#0a8078"/>
      <stop offset="1" stop-color="#36b39c"/>
    </linearGradient>
    <linearGradient id="Degradado_sin_nombre_131" data-name="Degradado sin nombre 131" x1="125" y1="250" x2="125" y2="0" gradientUnits="userSpaceOnUse">
      <stop offset="0" stop-color="#28746f"/>
      <stop offset="1" stop-color="#13f2c9"/>
    </linearGradient>
  </defs>
  <g>
    <rect class="cls-3" x="0" y="0" width="250" height="250" rx="45" ry="45"/>
    <path class="cls-2" d="m205,8c20.4,0,37,16.6,37,37v160c0,20.4-16.6,37-37,37H45c-20.4,0-37-16.6-37-37V45C8,24.6,24.6,8,45,8h160M205,0H45C20.15,0,0,20.15,0,45v160C0,229.85,20.15,250,45,250h160c24.85,0,45-20.15,45-45V45C250,20.15,229.85,0,205,0h0Z"/>
  </g>
  <path class="cls-1" d="m184.16,133.24c-.34-2.75-3.23-6.18-5.72-6.81-1.02-.26-1.96-.38-2.86-.38-1.37,0-2.66.29-3.97.9-.69.32-1.62.68-2.76.68-2.29,0-4.86-1.63-5.11-5.2-.11-1.54-.76-2.88-2.04-4.21-1.77-1.85-3.99-2.74-6.79-2.74h-.16c-3.43.04-4.91,1.23-5.73,2.13-1.29,1.41-2.77,2.12-4.41,2.12-1.18,0-2.93-.4-4.5-2.28-.59-.71-.88-.87-.91-.89-1.85-.95-3.6-1.41-5.36-1.41-1.36,0-2.71.28-4.11.85-1.05.43-2,.78-3.13.78-1.18,0-5.04-.45-5.04-6.28v-11.22c0-10.31,0-20.61-.02-30.92,0-3.02-1.38-5.32-4.2-7.02-1.61-.98-3.24-1.47-4.85-1.47-1.58,0-3.15.48-4.67,1.44-2.94,1.84-4.29,4.31-4.26,7.79.06,8.16.05,16.44.04,24.45,0,3.31-.01,6.62-.01,9.93v7.36c0,9.35,0,18.71-.02,28.06.51,3.82-2.1,5.54-3.72,5.95-.4.1-.82.15-1.23.15-1.83,0-3.36-.92-4.56-2.72l-.07-.1-.37-.49c-2.16-2.9-4.39-5.9-6.63-8.78-2.34-3.02-7.15-5.29-11.2-5.29-1.08,0-2.07.16-2.95.47-2.21.79-3.8,2.19-4.62,4.03-.82,1.85-.77,3.97.13,6.15.94,2.26,2.49,4.33,4.13,6.52.29.38.57.76.85,1.14,4.49,6.06,8.42,13.05,12.02,21.37,2.25,5.19,4.16,10.55,6.02,15.73l.64,1.77c1.77,4.94,4.55,9.61,8.73,14.71,4.02,4.9,6.45,10.53,7.22,16.74.34,2.74.32,5.37.3,7.92,0,.89-.01,1.73,0,2.57.05,0,.11,0,.16,0,13.62,0,27.25,0,40.87,0h14.94s.04,0,.06,0c0-.04,0-.08,0-.12-.33-5.01-.03-9.53.93-13.82,1.09-4.87,3.44-9.46,7.21-14.04,2.63-3.2,5.59-6.97,7.44-11.11,3.05-6.85,4.6-13.86,4.6-20.83,0-1.92,0-3.84.01-5.76.01-4.47.02-9.1-.03-13.63-.02-1.51,0-3.02.02-4.48.04-3.38.08-6.58-.31-9.72Z"/>
  <path class="cls-1" d="m78.75,103.94c-1.63,0-3.24-.69-4.38-2.03-6.95-8.21-11.01-18.25-11.73-29.01-1.85-27.59,19.09-51.54,46.68-53.39,27.58-1.85,51.54,19.09,53.39,46.68.85,12.73-3.12,25.19-11.19,35.07-2,2.45-5.61,2.81-8.06.81s-2.81-5.61-.81-8.06c6.23-7.62,9.29-17.23,8.63-27.06-.69-10.31-5.36-19.74-13.14-26.54-7.78-6.8-17.74-10.17-28.06-9.48-10.31.69-19.73,5.36-26.54,13.14-6.8,7.78-10.17,17.74-9.48,28.05.56,8.31,3.69,16.05,9.04,22.38,2.04,2.42,1.74,6.03-.67,8.07-1.08.91-2.39,1.36-3.7,1.36Z"/>
</svg>